<?xml version="1.0" encoding="UTF-8"?>
<svg version="1.1" xmlns="http://www.w3.org/2000/svg" width="1800" height="1800">
<path d="M0 0 C1.33534286 -0.00088371 1.33534286 -0.00088371 2.69766235 -0.00178528 C33.30956326 -0.01604095 63.72759188 0.72473073 94.25 3.25 C95.59964844 3.35891571 95.59964844 3.35891571 96.9765625 3.47003174 C181.36398577 10.29402378 264.73676139 27.11673603 345.25 53.25 C346.03185669 53.5037439 346.81371338 53.75748779 347.6192627 54.0189209 C385.79016356 66.44798639 424.29180289 80.27090144 460.25 98.25 C460.25 103.53 460.25 108.81 460.25 114.25 C461.56178223 114.52295898 462.87356445 114.79591797 464.22509766 115.07714844 C468.82020716 116.10092408 473.20937756 117.45971981 477.6484375 119.015625 C478.42820953 119.28526062 479.20798157 119.55489624 480.01138306 119.83270264 C482.55176184 120.71480516 485.08871104 121.60621025 487.625 122.5 C488.50381836 122.80856934 489.38263672 123.11713867 490.28808594 123.43505859 C541.48670337 141.45349582 592.08499997 163.29857141 639.25 190.25 C639.25 167.15 639.25 144.05 639.25 120.25 C624.4 120.25 609.55 120.25 594.25 120.25 C594.25 111.67 594.25 103.09 594.25 94.25 C609.1 94.25 623.95 94.25 639.25 94.25 C639.25 83.69 639.25 73.13 639.25 62.25 C633.04207086 62.28958027 633.04207086 62.28958027 626.83422852 62.34008789 C626.06522217 62.34258545 625.29621582 62.34508301 624.50390625 62.34765625 C623.71314697 62.35289307 622.9223877 62.35812988 622.10766602 62.36352539 C620.25 62.25 620.25 62.25 619.25 61.25 C619.25 53 619.25 44.75 619.25 36.25 C652.58 36.25 685.91 36.25 720.25 36.25 C720.25 44.83 720.25 53.41 720.25 62.25 C713.98 62.25 707.71 62.25 701.25 62.25 C701.25 72.81 701.25 83.37 701.25 94.25 C715.77 94.25 730.29 94.25 745.25 94.25 C745.25 102.83 745.25 111.41 745.25 120.25 C730.73 120.25 716.21 120.25 701.25 120.25 C701.25 147.31 701.25 174.37 701.25 202.25 C706.2 203.24 706.2 203.24 711.25 204.25 C713.9835349 205.26300052 716.55578038 206.28407891 719.1875 207.5 C720.21762207 207.96623779 720.21762207 207.96623779 721.26855469 208.44189453 C752.87589395 222.92920797 776.12668911 247.69915843 788.68359375 279.9296875 C793.66200354 293.90468947 795.7177363 307.43835057 795.25 322.25 C799.54 322.25 803.83 322.25 808.25 322.25 C808.25 330.5 808.25 338.75 808.25 347.25 C820.46 347.25 832.67 347.25 845.25 347.25 C845.25 355.83 845.25 364.41 845.25 373.25 C820.5 373.25 795.75 373.25 770.25 373.25 C770.25 394.7 770.25 416.15 770.25 438.25 C703.92 438.25 637.59 438.25 569.25 438.25 C569.25 416.8 569.25 395.35 569.25 373.25 C544.5 373.25 519.75 373.25 494.25 373.25 C494.25 364.67 494.25 356.09 494.25 347.25 C506.79 347.25 519.33 347.25 532.25 347.25 C532.25 339 532.25 330.75 532.25 322.25 C536.21 322.25 540.17 322.25 544.25 322.25 C544.229375 321.1775 544.20875 320.105 544.1875 319 C544.2357984 316.10209576 544.38155885 313.96387859 545.25 311.25 C544.39559326 310.98155273 543.54118652 310.71310547 542.66088867 310.43652344 C539.20961717 309.23595229 535.98389527 307.81610414 532.67578125 306.265625 C531.37215572 305.66002866 530.06826979 305.0549926 528.76416016 304.45043945 C528.08025208 304.13257477 527.39634399 303.81471008 526.69171143 303.48721313 C513.72863937 297.47685886 500.65412071 291.83813106 487.375 286.5625 C486.64278229 286.27113159 485.91056458 285.97976318 485.15615845 285.67956543 C476.89813712 282.40087612 468.60337467 279.28759079 460.25 276.25 C460.25 289.45 460.25 302.65 460.25 316.25 C450.12899572 312.92452717 440.04781758 309.56320225 430.04711914 305.89233398 C342.661428 273.95983596 249.76587791 253.7615367 72.4659729 236.35714722 C70.92067984 236.28242886 69.37558255 236.20359721 67.83065796 236.12161255 C46.21034861 234.98561947 24.58110802 235.04915001 2.9375 235.0625 C1.96922398 235.06276688 1.00094795 235.06303375 0.00333023 235.06330872 C-28.62903455 235.07321763 -57.17802438 235.20843 -85.75 237.25 C-87.71662245 237.38574857 -89.68325714 237.52131977 -91.64990234 237.65673828 C-184.7967861 244.1561568 -277.18448663 259.16412495 -465.75 316.25 C-465.75 303.05 -465.75 289.85 -465.75 276.25 C-491.21160516 285.73569604 -516.17553637 296.00441385 -540.75463867 307.59350586 C-542.28761597 308.31292358 -542.28761597 308.31292358 -543.8515625 309.046875 C-544.75213379 309.47323242 -545.65270508 309.89958984 -546.58056641 310.33886719 C-548.75 311.25 -548.75 311.25 -550.75 311.25 C-550.585 311.765625 -550.42 312.28125 -550.25 312.8125 C-549.59951 315.98363876 -549.6879266 319.02218334 -549.75 322.25 C-545.79 322.25 -541.83 322.25 -537.75 322.25 C-537.75 330.5 -537.75 338.75 -537.75 347.25 C-525.21 347.25 -512.67 347.25 -499.75 347.25 C-499.75 355.83 -499.75 364.41 -499.75 373.25 C-524.5 373.25 -549.25 373.25 -574.75 373.25 C-574.75 394.7 -574.75 416.15 -574.75 438.25 C-641.08 438.25 -707.41 438.25 -775.75 438.25 C-775.75 416.8 -775.75 395.35 -775.75 373.25 C-800.5 373.25 -825.25 373.25 -850.75 373.25 C-850.75 364.67 -850.75 356.09 -850.75 347.25 C-838.54 347.25 -826.33 347.25 -813.75 347.25 C-813.75 339 -813.75 330.75 -813.75 322.25 C-809.46 322.25 -805.17 322.25 -800.75 322.25 C-800.8325 320.3525 -800.915 318.455 -801 316.5 C-800.93379223 283.69404942 -784.92424606 254.48768709 -762.265625 231.7578125 C-749.03414447 219.19182063 -725.85051044 202.25 -706.75 202.25 C-706.75 175.19 -706.75 148.13 -706.75 120.25 C-721.27 120.25 -735.79 120.25 -750.75 120.25 C-750.75 111.67 -750.75 103.09 -750.75 94.25 C-736.23 94.25 -721.71 94.25 -706.75 94.25 C-706.75 83.69 -706.75 73.13 -706.75 62.25 C-713.02 62.25 -719.29 62.25 -725.75 62.25 C-725.75 53.67 -725.75 45.09 -725.75 36.25 C-692.42 36.25 -659.09 36.25 -624.75 36.25 C-624.75 44.5 -624.75 52.75 -624.75 61.25 C-625.75 62.25 -625.75 62.25 -627.60766602 62.36352539 C-628.39842529 62.35828857 -629.18918457 62.35305176 -630.00390625 62.34765625 C-630.7729126 62.34515869 -631.54191895 62.34266113 -632.33422852 62.34008789 C-633.31705811 62.33098389 -634.2998877 62.32187988 -635.3125 62.3125 C-639.9840625 62.2815625 -639.9840625 62.2815625 -644.75 62.25 C-644.75 72.81 -644.75 83.37 -644.75 94.25 C-629.9 94.25 -615.05 94.25 -599.75 94.25 C-599.75 102.83 -599.75 111.41 -599.75 120.25 C-614.6 120.25 -629.45 120.25 -644.75 120.25 C-644.75 143.35 -644.75 166.45 -644.75 190.25 C-635.51 185.3 -626.27 180.35 -616.75 175.25 C-577.27824473 155.03741034 -536.53067806 138.05971735 -494.75 123.25 C-493.50863281 122.80833496 -492.26726562 122.36666992 -490.98828125 121.91162109 C-487.34914155 120.62048073 -483.70687549 119.33877994 -480.0625 118.0625 C-478.96268799 117.67529785 -477.86287598 117.2880957 -476.72973633 116.88916016 C-475.72193115 116.54030762 -474.71412598 116.19145508 -473.67578125 115.83203125 C-472.79317627 115.52499268 -471.91057129 115.2179541 -471.0012207 114.90161133 C-468.75 114.25 -468.75 114.25 -465.75 114.25 C-465.75 108.97 -465.75 103.69 -465.75 98.25 C-417.92182469 76.00732708 -367.51118868 58.0216503 -316.73236084 43.80615234 C-314.5971872 43.20712829 -312.46387667 42.60171865 -310.33056641 41.99609375 C-229.8308822 19.22378858 -146.3351796 5.33972992 -62.75 1.25 C-61.99273621 1.20903198 -61.23547241 1.16806396 -60.45526123 1.12585449 C-40.31240233 0.04720061 -20.16580852 0.00612971 0 0 Z M-678.75 62.25 C-678.75 72.81 -678.75 83.37 -678.75 94.25 C-676.44 94.25 -674.13 94.25 -671.75 94.25 C-671.75 83.69 -671.75 73.13 -671.75 62.25 C-674.06 62.25 -676.37 62.25 -678.75 62.25 Z M666.25 62.25 C666.25 72.81 666.25 83.37 666.25 94.25 C668.56 94.25 670.87 94.25 673.25 94.25 C673.25 83.69 673.25 73.13 673.25 62.25 C670.94 62.25 668.63 62.25 666.25 62.25 Z M-678.75 120.25 C-678.75 145.99 -678.75 171.73 -678.75 198.25 C-676.44 198.25 -674.13 198.25 -671.75 198.25 C-671.75 172.51 -671.75 146.77 -671.75 120.25 C-674.06 120.25 -676.37 120.25 -678.75 120.25 Z M666.25 120.25 C666.25 145.99 666.25 171.73 666.25 198.25 C668.56 198.25 670.87 198.25 673.25 198.25 C673.25 172.51 673.25 146.77 673.25 120.25 C670.94 120.25 668.63 120.25 666.25 120.25 Z M-475.8984375 160.85546875 C-476.61445633 161.13075912 -477.33047516 161.4060495 -478.06819153 161.68968201 C-480.42317991 162.59878219 -482.77440694 163.51709865 -485.125 164.4375 C-485.93143951 164.75201111 -486.73787903 165.06652222 -487.5687561 165.39056396 C-511.82348993 174.8700047 -535.35880886 185.81368125 -558.75 197.25 C-559.63478027 197.67877441 -560.51956055 198.10754883 -561.43115234 198.54931641 C-575.52821785 205.38579302 -589.69699148 212.54799432 -602.75 221.25 C-600.60014663 223.48599732 -599.67117502 224.45213092 -596.75 225.25 C-592.41007687 224.14457937 -588.5844019 221.99412981 -584.625 219.9375 C-582.09970168 218.68683581 -579.56331646 217.45931445 -577.02734375 216.23046875 C-576.36128616 215.90476898 -575.69522858 215.57906921 -575.00898743 215.24349976 C-567.19627606 211.44477067 -559.21105952 208.07473854 -551.1875 204.75 C-550.43325745 204.43690887 -549.67901489 204.12381775 -548.9019165 203.80123901 C-521.59330885 192.49868891 -493.74187202 182.70696963 -465.75 173.25 C-465.75 168.3 -465.75 163.35 -465.75 158.25 C-469.50954566 158.25 -472.44940142 159.51144795 -475.8984375 160.85546875 Z M460.25 158.25 C460.25 163.2 460.25 168.15 460.25 173.25 C462.54066406 174.01441406 464.83132813 174.77882813 467.19140625 175.56640625 C503.48227719 187.74474799 539.81332645 200.75267844 574.22265625 217.64453125 C575.87696655 218.44455566 575.87696655 218.44455566 577.56469727 219.26074219 C579.62844483 220.26612117 581.68079299 221.29538857 583.71850586 222.35253906 C588.29867154 224.84074522 588.29867154 224.84074522 593.23046875 224.62841797 C595.12176257 223.46114786 595.12176257 223.46114786 597.25 221.25 C559.958833 196.389222 516.0377856 178.54706699 474.375 162.375 C473.28727295 161.95178467 472.1995459 161.52856934 471.07885742 161.0925293 C470.0860376 160.71394775 469.09321777 160.33536621 468.0703125 159.9453125 C467.20680176 159.61547363 466.34329102 159.28563477 465.45361328 158.94580078 C463.15834636 158.09944948 463.15834636 158.09944948 460.25 158.25 Z M-475.8984375 219.85546875 C-476.61445633 220.13075912 -477.33047516 220.4060495 -478.06819153 220.68968201 C-480.42317991 221.59878219 -482.77440694 222.51709865 -485.125 223.4375 C-485.93143951 223.75201111 -486.73787903 224.06652222 -487.5687561 224.39056396 C-514.58482523 234.94921318 -540.84106026 247.21887646 -566.75 260.25 C-565.43 262.89 -564.11 265.53 -562.75 268.25 C-555.66428442 265.55580274 -548.6060495 262.80391121 -541.57421875 259.97265625 C-516.57084678 249.93017011 -491.3122362 240.7707454 -465.75 232.25 C-465.75 227.3 -465.75 222.35 -465.75 217.25 C-469.50954566 217.25 -472.44940142 218.51144795 -475.8984375 219.85546875 Z M460.25 217.25 C460.25 222.2 460.25 227.15 460.25 232.25 C462.54066406 233.01441406 464.83132813 233.77882813 467.19140625 234.56640625 C484.56998459 240.39953176 501.83291993 246.46546917 518.9375 253.0625 C519.72182404 253.36407013 520.50614807 253.66564026 521.3142395 253.97634888 C533.05921992 258.50191076 544.67186567 263.31438466 556.25 268.25 C558.50245881 265.56158141 560.13213958 263.60358125 561.25 260.25 C534.54148121 246.47831965 507.30779237 234.23749214 479.3125 223.3125 C478.52198242 223.00296387 477.73146484 222.69342773 476.91699219 222.37451172 C474.68806364 221.50469733 472.45618085 220.64309044 470.22265625 219.78515625 C469.55867325 219.5265834 468.89469025 219.26801056 468.21058655 219.00160217 C465.39284316 217.93142017 463.29432975 217.25 460.25 217.25 Z " fill="#336598" transform="translate(902.75,189.75)"/>
<path d="M0 0 C16.83 0 33.66 0 51 0 C51 181.5 51 363 51 550 C52.98 550 54.96 550 57 550 C57 368.5 57 187 57 0 C65.91 0 74.82 0 84 0 C84 181.5 84 363 84 550 C86.31 550 88.62 550 91 550 C91 368.5 91 187 91 0 C100.24 0 109.48 0 119 0 C119 181.5 119 363 119 550 C120.98 550 122.96 550 125 550 C125 368.5 125 187 125 0 C141.83 0 158.66 0 176 0 C176 181.5 176 363 176 550 C179.96 550 183.92 550 188 550 C188 571.45 188 592.9 188 615 C212.75 615 237.5 615 263 615 C263 623.58 263 632.16 263 641 C246.5 641 230 641 213 641 C213 731.42 213 821.84 213 915 C229.5 915 246 915 263 915 C263 936.78 263 958.56 263 981 C147.17 981 31.34 981 -88 981 C-88 959.22 -88 937.44 -88 915 C-71.5 915 -55 915 -38 915 C-38 824.58 -38 734.16 -38 641 C-54.5 641 -71 641 -88 641 C-88 632.42 -88 623.84 -88 615 C-63.25 615 -38.5 615 -13 615 C-13 593.55 -13 572.1 -13 550 C-8.71 550 -4.42 550 0 550 C0 368.5 0 187 0 0 Z " fill="#CB6632" transform="translate(1485,629)"/>
<path d="M0 0 C16.83 0 33.66 0 51 0 C51 181.5 51 363 51 550 C52.98 550 54.96 550 57 550 C57 368.5 57 187 57 0 C66.24 0 75.48 0 85 0 C85 181.5 85 363 85 550 C87.31 550 89.62 550 92 550 C92 368.5 92 187 92 0 C100.91 0 109.82 0 119 0 C119 181.5 119 363 119 550 C120.98 550 122.96 550 125 550 C125 368.5 125 187 125 0 C141.83 0 158.66 0 176 0 C176 181.5 176 363 176 550 C180.29 550 184.58 550 189 550 C189 571.45 189 592.9 189 615 C213.75 615 238.5 615 264 615 C264 623.58 264 632.16 264 641 C247.5 641 231 641 214 641 C214 731.42 214 821.84 214 915 C230.5 915 247 915 264 915 C264 936.78 264 958.56 264 981 C148.17 981 32.34 981 -87 981 C-87 959.22 -87 937.44 -87 915 C-70.5 915 -54 915 -37 915 C-37 824.58 -37 734.16 -37 641 C-53.5 641 -70 641 -87 641 C-87 632.42 -87 623.84 -87 615 C-62.25 615 -37.5 615 -12 615 C-12 593.55 -12 572.1 -12 550 C-8.04 550 -4.08 550 0 550 C0 368.5 0 187 0 0 Z " fill="#CB6632" transform="translate(139,629)"/>
<path d="M0 0 C1.96864014 -0.00149551 1.96864014 -0.00149551 3.97705078 -0.00302124 C32.9818865 -0.00052583 61.88042014 0.94880863 90.8125 3 C92.05761353 3.08675995 93.30272705 3.1735199 94.58557129 3.26290894 C115.17158803 4.70558545 135.65649151 6.56412277 156.125 9.1875 C157.22569824 9.32542969 158.32639648 9.46335938 159.46044922 9.60546875 C170.51829848 10.99956178 181.5103304 12.64551985 192.46679688 14.69238281 C195.61710313 15.27915918 198.76956016 15.85380038 201.921875 16.4296875 C242.43252404 23.87729882 282.92505952 31.76490279 322.22192383 44.28833008 C325.11031732 45.18295233 328.00997525 46.03302188 330.91412354 46.87489319 C341.20514319 49.86138987 351.39538027 53.11707584 361.5625 56.5 C362.4537558 56.79619232 363.3450116 57.09238464 364.26327515 57.39755249 C378.43895011 62.1258047 392.47466362 67.1771031 406.4375 72.5 C407.27948944 72.81989899 408.12147888 73.13979797 408.98898315 73.46939087 C421.86203366 78.3749068 434.45007137 83.75538773 447.125 89.1875 C447.125 153.8675 447.125 218.5475 447.125 285.1875 C439.25247429 284.06285347 439.25247429 284.06285347 435.96337891 282.89990234 C434.85257462 282.51310806 434.85257462 282.51310806 433.71932983 282.11849976 C432.93796661 281.83962921 432.15660339 281.56075867 431.3515625 281.2734375 C429.63450415 280.67429559 427.91737919 280.07534456 426.20019531 279.4765625 C425.30997681 279.16364258 424.4197583 278.85072266 423.50256348 278.52832031 C408.05126827 273.10676513 392.62100603 268.06850954 376.78076172 263.89794922 C373.33043933 262.97494516 369.90189921 261.98376617 366.47241211 260.98657227 C342.71958159 254.08468556 318.89194229 248.06409722 294.70019531 242.95166016 C291.58353848 242.28550775 288.47429767 241.59579423 285.3671875 240.88671875 C273.20073755 238.12303138 260.96599939 235.82562477 248.6875 233.625 C247.89503876 233.48288086 247.10257751 233.34076172 246.28610229 233.19433594 C241.43433503 232.32709331 236.57971037 231.47759108 231.72290039 230.6390686 C229.96867367 230.33414786 228.21510167 230.02543974 226.4621582 229.71322632 C208.38816322 226.49438489 190.22890376 224.23463956 172 222.125 C170.47867402 221.94801522 168.95735245 221.77099256 167.43603516 221.59393311 C145.49216987 219.04569821 123.56365747 216.5419011 101.49890137 215.32037354 C99.02129777 215.18169551 96.5443932 215.03315167 94.06738281 214.88427734 C29.18462406 211.0873331 -37.09181551 210.72619868 -101.875 216.1875 C-103.34355743 216.3065207 -104.81214327 216.42519163 -106.28076172 216.54345703 C-114.43738625 217.210644 -122.57029042 218.04328796 -130.70355225 218.94921875 C-134.0425311 219.31561764 -137.38337423 219.66400213 -140.72401428 220.01487732 C-163.8339857 222.44806397 -186.85350275 225.20686661 -209.8036499 228.85931396 C-211.90575165 229.19237231 -214.00865471 229.51989795 -216.11181641 229.84619141 C-250.57609574 235.21032635 -284.64631143 242.31834022 -318.5625 250.4375 C-319.61109192 250.6877594 -320.65968384 250.9380188 -321.74005127 251.19586182 C-332.95399833 253.88188081 -344.07529898 256.73268262 -355.11450195 260.06640625 C-360.58429013 261.69707997 -366.10254396 263.12307821 -371.625 264.5625 C-380.70933487 266.96649364 -389.63297963 269.65101825 -398.52099609 272.69824219 C-404.57564523 274.77311711 -410.66261517 276.64267394 -416.81518555 278.40356445 C-422.91366831 280.16140128 -428.90490379 282.18398687 -434.8984375 284.26953125 C-437.875 285.1875 -437.875 285.1875 -440.875 285.1875 C-440.875 220.5075 -440.875 155.8275 -440.875 89.1875 C-416.68896426 78.82205611 -416.68896426 78.82205611 -408.81640625 75.94140625 C-407.45058662 75.4347065 -407.45058662 75.4347065 -406.05717468 74.91777039 C-403.18627104 73.85541408 -400.31225827 72.80187631 -397.4375 71.75 C-396.4431897 71.38442993 -395.44887939 71.01885986 -394.42443848 70.64221191 C-352.60236924 55.27316595 -352.60236924 55.27316595 -332.36036682 49.95770264 C-328.02337543 48.80890947 -323.75327942 47.53114755 -319.48947144 46.1361084 C-308.20207876 42.44945588 -296.77961834 39.50674389 -285.25 36.6875 C-283.28401701 36.20304791 -281.31811618 35.71826228 -279.35229492 35.2331543 C-275.53275773 34.29171614 -271.71230321 33.35413919 -267.89111328 32.41943359 C-263.89020757 31.43948879 -259.89487228 30.43939662 -255.90234375 29.42578125 C-196.41545741 14.46500744 -134.51477326 6.38157255 -73.37255859 2.47998047 C-70.45752301 2.29364796 -67.54421 2.09315142 -64.63134766 1.87548828 C-43.0970056 0.26825041 -21.58582739 0.00380043 0 0 Z " fill="#FEFEFE" transform="translate(896.875,199.8125)"/>
<path d="M0 0 C82.83 0 165.66 0 251 0 C251 90.42 251 180.84 251 274 C267.5 274 284 274 301 274 C301 295.78 301 317.56 301 340 C185.17 340 69.34 340 -50 340 C-50 318.22 -50 296.44 -50 274 C-33.5 274 -17 274 0 274 C0 183.58 0 93.16 0 0 Z " fill="#336698" transform="translate(1447,1270)"/>
<path d="M0 0 C82.83 0 165.66 0 251 0 C251 90.42 251 180.84 251 274 C267.5 274 284 274 301 274 C301 295.78 301 317.56 301 340 C185.17 340 69.34 340 -50 340 C-50 318.22 -50 296.44 -50 274 C-33.5 274 -17 274 0 274 C0 183.58 0 93.16 0 0 Z " fill="#336698" transform="translate(102,1270)"/>
<path d="M0 0 C33.33 0 66.66 0 101 0 C101 8.58 101 17.16 101 26 C94.73 26 88.46 26 82 26 C82 36.56 82 47.12 82 58 C96.52 58 111.04 58 126 58 C126 66.58 126 75.16 126 84 C111.48 84 96.96 84 82 84 C82 111.06 82 138.12 82 166 C85.3 166.66 88.6 167.32 92 168 C94.7335349 169.01300052 97.30578038 170.03407891 99.9375 171.25 C100.62424805 171.5608252 101.31099609 171.87165039 102.01855469 172.19189453 C133.62589395 186.67920797 156.87668911 211.44915843 169.43359375 243.6796875 C174.41200354 257.65468947 176.4677363 271.18835057 176 286 C180.29 286 184.58 286 189 286 C189 294.25 189 302.5 189 311 C201.21 311 213.42 311 226 311 C226 319.58 226 328.16 226 337 C201.25 337 176.5 337 151 337 C151 358.45 151 379.9 151 402 C84.67 402 18.34 402 -50 402 C-50 380.55 -50 359.1 -50 337 C-74.75 337 -99.5 337 -125 337 C-125 328.42 -125 319.84 -125 311 C-112.46 311 -99.92 311 -87 311 C-87 302.75 -87 294.5 -87 286 C-83.04 286 -79.08 286 -75 286 C-75.020625 284.9275 -75.04125 283.855 -75.0625 282.75 C-75.0142016 279.85209576 -74.86844115 277.71387859 -74 275 C-75.28161011 274.5973291 -75.28161011 274.5973291 -76.58911133 274.18652344 C-80.04038283 272.98595229 -83.26610473 271.56610414 -86.57421875 270.015625 C-87.87776548 269.41011554 -89.18156989 268.80516061 -90.4855957 268.20068359 C-91.16949371 267.88282898 -91.85339172 267.56497437 -92.55801392 267.23748779 C-109.44950228 259.40454693 -126.60235896 252.37145675 -143.94848633 245.61474609 C-149.32427222 243.4722063 -154.65813935 241.22577527 -160 239 C-160 224.81 -160 210.62 -160 196 C-152.12232664 197.12538191 -152.12232664 197.12538191 -148.81347656 198.26831055 C-147.69050423 198.65165306 -147.69050423 198.65165306 -146.54484558 199.04273987 C-145.75145279 199.3212529 -144.95806 199.59976593 -144.140625 199.88671875 C-142.86527641 200.32726845 -142.86527641 200.32726845 -141.56416321 200.77671814 C-138.78991659 201.73899002 -136.01972256 202.71228873 -133.25 203.6875 C-132.30180389 204.01925232 -131.35360779 204.35100464 -130.37667847 204.69281006 C-107.59166489 212.67655508 -85.26620874 221.68120837 -63 231 C-61.02 228.03 -61.02 228.03 -59 225 C-80.84074023 213.08442374 -103.37650338 202.93940477 -126.375 193.5 C-127.20012085 193.16079529 -128.0252417 192.82159058 -128.87536621 192.47210693 C-138.00825616 188.72681593 -147.15834766 185.13611538 -156.49462891 181.92773438 C-159 181 -159 181 -160 180 C-160.09268999 178.64905018 -160.11747326 177.29332909 -160.11352539 175.93920898 C-160.11344986 175.07839218 -160.11337433 174.21757538 -160.11329651 173.33067322 C-160.10813522 172.39526199 -160.10297394 171.45985077 -160.09765625 170.49609375 C-160.0962413 169.54307877 -160.09482635 168.59006378 -160.09336853 167.60816956 C-160.08775152 164.55124835 -160.07519616 161.49439923 -160.0625 158.4375 C-160.05748719 156.37044376 -160.05292391 154.30338638 -160.04882812 152.23632812 C-160.03777656 147.15752412 -160.02050055 142.0787743 -160 137 C-154.39811115 137.60762948 -149.44717874 139.02396994 -144.140625 140.88671875 C-142.86663597 141.32665665 -142.86663597 141.32665665 -141.56690979 141.77548218 C-138.79164152 142.73788133 -136.02050842 143.71148866 -133.25 144.6875 C-131.81773575 145.18961502 -131.81773575 145.18961502 -130.35653687 145.70187378 C-101.95376593 155.67704937 -74.25646278 167.11192406 -46.75634766 179.33544922 C-40.18399258 182.2533397 -33.590368 185.12309347 -27 188 C-25.68 187.01 -24.36 186.02 -23 185 C-62.24711966 162.83038824 -102.45134734 143.46464581 -144.57763672 127.38989258 C-145.31328857 127.10904816 -146.04894043 126.82820374 -146.80688477 126.53884888 C-148.17904745 126.01631844 -149.55204141 125.49596341 -150.92602539 124.97824097 C-154.05984897 123.78861934 -156.99316736 122.50341632 -160 121 C-160 106.81 -160 92.62 -160 78 C-152.12232664 79.12538191 -152.12232664 79.12538191 -148.81347656 80.26831055 C-148.06472763 80.52391754 -147.3159787 80.77952454 -146.54454041 81.0428772 C-145.75124832 81.32134491 -144.95795624 81.59981262 -144.140625 81.88671875 C-143.29129898 82.18001068 -142.44197296 82.47330261 -141.56690979 82.77548218 C-138.79164152 83.73788133 -136.02050842 84.71148866 -133.25 85.6875 C-131.81773575 86.18961502 -131.81773575 86.18961502 -130.35653687 86.70187378 C-111.67877051 93.26158584 -93.25085287 100.33478301 -75 108 C-74.32575989 108.28296936 -73.65151978 108.56593872 -72.95684814 108.85748291 C-41.25038315 122.19620906 -9.87647156 136.92773054 20 154 C20 130.9 20 107.8 20 84 C5.15 84 -9.7 84 -25 84 C-25 75.42 -25 66.84 -25 58 C-10.15 58 4.7 58 20 58 C20 47.44 20 36.88 20 26 C13.79207086 26.03958027 13.79207086 26.03958027 7.58422852 26.09008789 C6.81522217 26.09258545 6.04621582 26.09508301 5.25390625 26.09765625 C4.46314697 26.10289307 3.6723877 26.10812988 2.85766602 26.11352539 C1 26 1 26 0 25 C0 16.75 0 8.5 0 0 Z M47 26 C47 36.56 47 47.12 47 58 C49.31 58 51.62 58 54 58 C54 47.44 54 36.88 54 26 C51.69 26 49.38 26 47 26 Z M47 84 C47 109.74 47 135.48 47 162 C49.31 162 51.62 162 54 162 C54 136.26 54 110.52 54 84 C51.69 84 49.38 84 47 84 Z " fill="#336598" transform="translate(1522,226)"/>
<path d="M0 0 C64.35 0 128.7 0 195 0 C195 70.95 195 141.9 195 215 C130.65 215 66.3 215 0 215 C0 144.05 0 73.1 0 0 Z " fill="#B2B2B2" transform="translate(1475,1300)"/>
<path d="M0 0 C64.35 0 128.7 0 195 0 C195 70.95 195 141.9 195 215 C130.65 215 66.3 215 0 215 C0 144.05 0 73.1 0 0 Z " fill="#B2B2B2" transform="translate(130,1300)"/>
<path d="M0 0 C91.08 0 182.16 0 276 0 C276 8.25 276 16.5 276 25 C288.21 25 300.42 25 313 25 C313 33.58 313 42.16 313 51 C288.25 51 263.5 51 238 51 C238 72.45 238 93.9 238 116 C171.67 116 105.34 116 37 116 C37 94.55 37 73.1 37 51 C12.25 51 -12.5 51 -38 51 C-38 42.42 -38 33.84 -38 25 C-25.46 25 -12.92 25 0 25 C0 16.75 0 8.5 0 0 Z " fill="#CC9833" transform="translate(1435,512)"/>
<path d="M0 0 C91.08 0 182.16 0 276 0 C276 8.25 276 16.5 276 25 C288.54 25 301.08 25 314 25 C314 33.58 314 42.16 314 51 C289.25 51 264.5 51 239 51 C239 72.45 239 93.9 239 116 C172.67 116 106.34 116 38 116 C38 94.55 38 73.1 38 51 C13.25 51 -11.5 51 -37 51 C-37 42.42 -37 33.84 -37 25 C-24.79 25 -12.58 25 0 25 C0 16.75 0 8.5 0 0 Z " fill="#CC9833" transform="translate(89,512)"/>
<path d="M0 0 C0.89022858 -0.00058914 1.78045715 -0.00117828 2.69766235 -0.00178528 C33.30956326 -0.01604095 63.72759188 0.72473073 94.25 3.25 C95.59964844 3.35891571 95.59964844 3.35891571 96.9765625 3.47003174 C181.36398577 10.29402378 264.73676139 27.11673603 345.25 53.25 C346.03185669 53.5037439 346.81371338 53.75748779 347.6192627 54.0189209 C385.79016356 66.44798639 424.29180289 80.27090144 460.25 98.25 C460.25 170.19 460.25 242.13 460.25 316.25 C437.56309392 308.68769797 437.56309392 308.68769797 429.73950195 305.79125977 C342.65907814 273.64012901 249.52238382 253.73405895 72.4659729 236.35714722 C70.92067984 236.28242886 69.37558255 236.20359721 67.83065796 236.12161255 C46.21034861 234.98561947 24.58110802 235.04915001 2.9375 235.0625 C1.96922398 235.06276688 1.00094795 235.06303375 0.00333023 235.06330872 C-28.62903455 235.07321763 -57.17802438 235.20843 -85.75 237.25 C-87.71662245 237.38574857 -89.68325714 237.52131977 -91.64990234 237.65673828 C-184.7967861 244.1561568 -277.18448663 259.16412495 -465.75 316.25 C-465.75 244.31 -465.75 172.37 -465.75 98.25 C-433.68338097 83.99816932 -433.68338097 83.99816932 -418.1875 78.0625 C-416.83189972 77.54030884 -416.83189972 77.54030884 -415.44891357 77.00756836 C-383.0855734 64.57059866 -350.12919836 53.15557406 -316.73236084 43.80615234 C-314.5971872 43.20712829 -312.46387667 42.60171865 -310.33056641 41.99609375 C-229.8308822 19.22378858 -146.3351796 5.33972992 -62.75 1.25 C-61.99273621 1.20903198 -61.23547241 1.16806396 -60.45526123 1.12585449 C-40.31240233 0.04720061 -20.16580852 0.00612971 0 0 Z M-117.51806641 15.88818359 C-120.77407439 16.25269514 -124.03188834 16.57884897 -127.29296875 16.89453125 C-158.09184162 19.92181913 -188.73238991 24.48103866 -219.08056641 30.52636719 C-222.60561162 31.2215258 -226.13515738 31.88467064 -229.66796875 32.5390625 C-245.84625302 35.58673424 -261.82300461 39.3428847 -277.8125 43.25 C-278.84454559 43.50130676 -279.87659119 43.75261353 -280.93991089 44.01153564 C-294.97423634 47.43905329 -308.88965378 51.17667451 -322.75 55.25 C-323.57659622 55.49177475 -324.40319244 55.7335495 -325.25483704 55.98265076 C-359.17522546 65.90879671 -392.56768226 77.32991694 -425.4375 90.3125 C-426.69700974 90.80996231 -426.69700974 90.80996231 -427.98196411 91.31747437 C-430.36812208 92.26195304 -432.75281468 93.21000453 -435.13671875 94.16015625 C-436.20486313 94.58444412 -436.20486313 94.58444412 -437.29458618 95.01730347 C-440.52949533 96.31330559 -443.62857166 97.68928583 -446.75 99.25 C-446.75 163.93 -446.75 228.61 -446.75 295.25 C-439.61199718 293.71031314 -439.61199718 293.71031314 -432.734375 291.6640625 C-431.45771973 291.2309375 -431.45771973 291.2309375 -430.15527344 290.7890625 C-429.2790332 290.48742187 -428.40279297 290.18578125 -427.5 289.875 C-425.62532241 289.241233 -423.75032361 288.60841535 -421.875 287.9765625 C-420.53695312 287.52458496 -420.53695312 287.52458496 -419.171875 287.06347656 C-409.00747592 283.64938606 -398.68232036 280.81447757 -388.35302734 277.95043945 C-382.82904664 276.41356152 -377.32732263 274.83505695 -371.85327148 273.12915039 C-341.82069097 263.80710584 -311.02836683 257.08641578 -280.2510376 250.76428223 C-277.8001523 250.26031269 -275.3499522 249.75313098 -272.89990234 249.24511719 C-255.78957577 245.70343779 -238.67443434 242.33336597 -221.3828125 239.78759766 C-218.75391413 239.3985631 -216.12665141 239.00274244 -213.5 238.59912109 C-168.43407632 231.6874374 -123.18346714 226.91536711 -77.64305115 224.66757202 C-73.92111582 224.48234117 -70.20560461 224.28497631 -66.48970032 223.99971008 C-55.68825707 223.18061402 -44.9410081 223.08747061 -34.11328125 223.08203125 C-32.12333639 223.07799447 -30.13339192 223.07375801 -28.14344788 223.06933594 C-21.78312285 223.05790893 -15.422832 223.05941036 -9.0625 223.0625 C-7.98204659 223.06261959 -6.90159317 223.06273918 -5.78839874 223.0628624 C27.26146875 223.06750707 60.25025312 223.23527527 93.25 225.25 C94.0734491 225.2985614 94.89689819 225.3471228 95.74530029 225.39715576 C123.68047396 227.05184762 151.43303138 230.43803234 179.19616699 233.875 C182.30609164 234.25688786 185.4170577 234.62918337 188.52832031 235 C199.37511597 236.30417825 210.13380782 237.78072386 220.86956787 239.80523682 C223.5914299 240.31379323 226.31614722 240.80495271 229.04150391 241.29443359 C257.24626674 246.36408481 285.36486006 251.62700285 313.25 258.25 C314.38405273 258.5176416 315.51810547 258.7852832 316.68652344 259.06103516 C330.60862575 262.37073096 344.34982671 266.20296523 358.05957031 270.29833984 C361.47261781 271.31640375 364.88836556 272.3250124 368.3046875 273.33203125 C374.95611731 275.2947778 381.60716152 277.25833458 388.25 279.25 C389.25232666 279.5495459 390.25465332 279.8490918 391.28735352 280.15771484 C397.64812034 282.0843101 403.95822289 284.13803682 410.25390625 286.265625 C411.0329985 286.52869949 411.81209076 286.79177399 412.61479187 287.06282043 C415.83825792 288.15255136 419.06124586 289.24356479 422.28149414 290.34277344 C424.66633052 291.15582357 427.05361188 291.96131067 429.44140625 292.765625 C430.16743546 293.01556213 430.89346466 293.26549927 431.64149475 293.52301025 C435.06529121 294.67021317 437.59415212 295.25 441.25 295.25 C441.25 230.57 441.25 165.89 441.25 99.25 C419.08854915 89.83212332 419.08854915 89.83212332 396.6875 81.0625 C395.87635742 80.75828125 395.06521484 80.4540625 394.22949219 80.140625 C379.52440585 74.64381754 364.67312639 69.62000016 349.75 64.75 C348.7490329 64.42278961 347.7480658 64.09557922 346.71676636 63.75845337 C327.4012553 57.4641482 307.95074682 51.55253008 288.2578125 46.546875 C284.70053051 45.63445988 281.15751787 44.67919182 277.6171875 43.703125 C247.87401168 35.6033892 217.49913689 29.81431122 187.04931641 25.10131836 C186.32552795 24.98924042 185.6017395 24.87716248 184.85601807 24.76168823 C182.93239572 24.46585258 181.00797858 24.17519738 179.08349609 23.88500977 C176.16990445 23.40238004 173.30060466 22.85916431 170.41064453 22.26098633 C165.34818246 21.23413423 160.28156518 20.51337095 155.15625 19.8828125 C153.71599457 19.70335838 153.71599457 19.70335838 152.24664307 19.52027893 C149.08196085 19.13092676 145.91627518 18.75117206 142.75 18.375 C141.6506311 18.24404938 140.55126221 18.11309875 139.4185791 17.97817993 C120.97798781 15.80818347 102.5234577 14.20397474 84 12.9375 C82.83460693 12.8565509 81.66921387 12.77560181 80.46850586 12.69219971 C52.04826305 10.74560086 23.60840075 10.01721213 -4.875 10 C-5.87135027 9.99889536 -5.87135027 9.99889536 -6.88782883 9.9977684 C-43.85090979 9.96472555 -80.78294355 11.67160183 -117.51806641 15.88818359 Z " fill="#03359A" transform="translate(902.75,189.75)"/>
<path d="M0 0 C16.83 0 33.66 0 51 0 C51 181.83 51 363.66 51 551 C34.17 551 17.34 551 0 551 C0 369.17 0 187.34 0 0 Z " fill="#336698" transform="translate(1485,629)"/>
<path d="M0 0 C16.83 0 33.66 0 51 0 C51 181.83 51 363.66 51 551 C34.17 551 17.34 551 0 551 C0 369.17 0 187.34 0 0 Z " fill="#336698" transform="translate(264,629)"/>
<path d="M0 0 C16.83 0 33.66 0 51 0 C51.01689944 52.42118774 51.03303136 104.84237537 51.04234314 157.26356506 C51.0424812 158.03878265 51.04261925 158.81400025 51.04276149 159.61270928 C51.04575405 176.45820059 51.04852428 193.30369194 51.05106533 210.14918333 C51.05231272 218.40959553 51.05360927 226.67000773 51.05493164 234.93041992 C51.0550624 235.75245264 51.05519316 236.57448537 51.05532788 237.42142817 C51.05959312 264.09043471 51.06710733 290.75943914 51.07629722 317.4284444 C51.08571991 344.82260954 51.09188314 372.2167735 51.09391499 399.61094022 C51.09420317 403.47563315 51.0945288 407.34032608 51.09487724 411.205019 C51.09497838 412.34601701 51.09497838 412.34601701 51.09508156 413.51006549 C51.09626563 425.77994768 51.10091001 438.04982628 51.10683203 450.319707 C51.11270502 462.63976668 51.11497157 474.95982276 51.11350138 487.27988379 C51.11280534 493.96136507 51.11387957 500.64283792 51.11920547 507.32431793 C51.12403729 513.43015468 51.1243401 519.53597355 51.12089889 525.64181108 C51.12047299 527.86119545 51.12177054 530.08058088 51.12488318 532.29996311 C51.12884348 535.29579732 51.1267657 538.29156534 51.12304783 541.28739834 C51.12567484 542.16716132 51.12830186 543.0469243 51.13100848 543.95334676 C51.1141458 549.8858542 51.1141458 549.8858542 50 551 C33.5 551 17 551 0 551 C0 369.17 0 187.34 0 0 Z " fill="#336698" transform="translate(1610,629)"/>
<path d="M0 0 C16.83 0 33.66 0 51 0 C51 181.83 51 363.66 51 551 C34.5 551 18 551 1 551 C-0.86914157 549.13085843 -0.12393821 546.44075594 -0.13100848 543.95334676 C-0.12838146 543.07358378 -0.12575445 542.1938208 -0.12304783 541.28739834 C-0.1247786 539.89275928 -0.1247786 539.89275928 -0.12654433 538.4699457 C-0.12921904 535.31315258 -0.12468185 532.15640913 -0.12025452 528.99961853 C-0.12069004 526.73011515 -0.12156461 524.46061182 -0.12284368 522.19110876 C-0.12509227 515.92249616 -0.12106242 509.65390047 -0.11606562 503.38529003 C-0.11220735 497.32942802 -0.1130248 491.27356791 -0.11374746 485.21770517 C-0.1150635 472.82397195 -0.11171186 460.43024405 -0.10573006 448.03651237 C-0.09981966 435.75934765 -0.09596545 423.48218514 -0.09487724 411.205019 C-0.0948085 410.44259701 -0.09473976 409.68017502 -0.09466894 408.89464933 C-0.09433062 405.02293359 -0.09402923 401.15121785 -0.09374207 397.2795021 C-0.09163982 369.83273622 -0.08489736 342.38597323 -0.07543945 314.93920898 C-0.06625994 288.26961279 -0.05917392 261.60001738 -0.05493164 234.93041992 C-0.05480011 234.1088207 -0.05466859 233.28722147 -0.05453308 232.4407253 C-0.05321459 224.19013497 -0.05193877 215.93954463 -0.05069422 207.68895429 C-0.04815778 190.88049117 -0.04533653 174.0720281 -0.04234314 157.26356506 C-0.04220585 156.49068345 -0.04206856 155.71780183 -0.04192711 154.92149955 C-0.03272135 103.28099842 -0.01664777 51.6404992 0 0 Z " fill="#336698" transform="translate(139,629)"/>
<path d="M0 0 C115.83 0 231.66 0 351 0 C351 21.78 351 43.56 351 66 C235.17 66 119.34 66 0 66 C0 44.22 0 22.44 0 0 Z " fill="#CB9833" transform="translate(1397,1544)"/>
<path d="M0 0 C115.83 0 231.66 0 351 0 C351 21.78 351 43.56 351 66 C235.17 66 119.34 66 0 66 C0 44.22 0 22.44 0 0 Z " fill="#CB9833" transform="translate(52,1544)"/>
<path d="M0 0 C9.24 0 18.48 0 28 0 C28.01705285 52.42118764 28.03303136 104.84237542 28.04234314 157.26356506 C28.0424812 158.03878265 28.04261925 158.81400025 28.04276149 159.61270928 C28.04575405 176.45820059 28.04852428 193.30369194 28.05106533 210.14918333 C28.05231272 218.40959553 28.05360927 226.67000773 28.05493164 234.93041992 C28.0550624 235.75245264 28.05519316 236.57448537 28.05532788 237.42142817 C28.05959312 264.09043471 28.06710733 290.75943914 28.07629722 317.4284444 C28.08571991 344.82260954 28.09188314 372.2167735 28.09391499 399.61094022 C28.09420317 403.47563315 28.0945288 407.34032608 28.09487724 411.205019 C28.09494467 411.96568434 28.09501209 412.72634968 28.09508156 413.51006549 C28.09626563 425.77994768 28.10091001 438.04982628 28.10683203 450.319707 C28.11270502 462.63976668 28.11497157 474.95982276 28.11350138 487.27988379 C28.11280534 493.96136507 28.11387957 500.64283792 28.11920547 507.32431793 C28.12403729 513.43015468 28.1243401 519.53597355 28.12089889 525.64181108 C28.12047299 527.86119545 28.12177054 530.08058088 28.12488318 532.29996311 C28.12884348 535.29579732 28.1267657 538.29156534 28.12304783 541.28739834 C28.12567484 542.16716132 28.12830186 543.0469243 28.13100848 543.95334676 C28.1141458 549.8858542 28.1141458 549.8858542 27 551 C25.08541718 551.09971786 23.16717683 551.13080589 21.25 551.1328125 C20.0846875 551.13410156 18.919375 551.13539063 17.71875 551.13671875 C16.4915625 551.13285156 15.264375 551.12898438 14 551.125 C12.7728125 551.12886719 11.545625 551.13273437 10.28125 551.13671875 C9.1159375 551.13542969 7.950625 551.13414062 6.75 551.1328125 C5.67234375 551.13168457 4.5946875 551.13055664 3.484375 551.12939453 C1 551 1 551 0 550 C-0.09906244 547.08805968 -0.13174442 544.19980894 -0.12304783 541.28739834 C-0.1247786 539.89275928 -0.1247786 539.89275928 -0.12654433 538.4699457 C-0.12921904 535.31315258 -0.12468185 532.15640913 -0.12025452 528.99961853 C-0.12069004 526.73011515 -0.12156461 524.46061182 -0.12284368 522.19110876 C-0.12509227 515.92249616 -0.12106242 509.65390047 -0.11606562 503.38529003 C-0.11220735 497.32942802 -0.1130248 491.27356791 -0.11374746 485.21770517 C-0.1150635 472.82397195 -0.11171186 460.43024405 -0.10573006 448.03651237 C-0.09981966 435.75934765 -0.09596545 423.48218514 -0.09487724 411.205019 C-0.0948085 410.44259701 -0.09473976 409.68017502 -0.09466894 408.89464933 C-0.09433062 405.02293359 -0.09402923 401.15121785 -0.09374207 397.2795021 C-0.09163982 369.83273622 -0.08489736 342.38597323 -0.07543945 314.93920898 C-0.06625994 288.26961279 -0.05917392 261.60001738 -0.05493164 234.93041992 C-0.05480011 234.1088207 -0.05466859 233.28722147 -0.05453308 232.4407253 C-0.05321459 224.19013497 -0.05193877 215.93954463 -0.05069422 207.68895429 C-0.04815778 190.88049117 -0.04533653 174.0720281 -0.04234314 157.26356506 C-0.04220585 156.49068345 -0.04206856 155.71780183 -0.04192711 154.92149955 C-0.03272135 103.28099846 -0.01679889 51.64049911 0 0 Z " fill="#CC3300" transform="translate(1576,629)"/>
<path d="M0 0 C9.24 0 18.48 0 28 0 C28.01705285 52.42118764 28.03303136 104.84237542 28.04234314 157.26356506 C28.0424812 158.03878265 28.04261925 158.81400025 28.04276149 159.61270928 C28.04575405 176.45820059 28.04852428 193.30369194 28.05106533 210.14918333 C28.05231272 218.40959553 28.05360927 226.67000773 28.05493164 234.93041992 C28.0550624 235.75245264 28.05519316 236.57448537 28.05532788 237.42142817 C28.05959312 264.09043471 28.06710733 290.75943914 28.07629722 317.4284444 C28.08571991 344.82260954 28.09188314 372.2167735 28.09391499 399.61094022 C28.09420317 403.47563315 28.0945288 407.34032608 28.09487724 411.205019 C28.09494467 411.96568434 28.09501209 412.72634968 28.09508156 413.51006549 C28.09626563 425.77994768 28.10091001 438.04982628 28.10683203 450.319707 C28.11270502 462.63976668 28.11497157 474.95982276 28.11350138 487.27988379 C28.11280534 493.96136507 28.11387957 500.64283792 28.11920547 507.32431793 C28.12403729 513.43015468 28.1243401 519.53597355 28.12089889 525.64181108 C28.12047299 527.86119545 28.12177054 530.08058088 28.12488318 532.29996311 C28.12884348 535.29579732 28.1267657 538.29156534 28.12304783 541.28739834 C28.12567484 542.16716132 28.12830186 543.0469243 28.13100848 543.95334676 C28.1141458 549.8858542 28.1141458 549.8858542 27 551 C25.08541718 551.09971786 23.16717683 551.13080589 21.25 551.1328125 C20.0846875 551.13410156 18.919375 551.13539063 17.71875 551.13671875 C16.4915625 551.13285156 15.264375 551.12898438 14 551.125 C12.7728125 551.12886719 11.545625 551.13273437 10.28125 551.13671875 C9.1159375 551.13542969 7.950625 551.13414062 6.75 551.1328125 C5.67234375 551.13168457 4.5946875 551.13055664 3.484375 551.12939453 C1 551 1 551 0 550 C-0.09906244 547.08805968 -0.13174442 544.19980894 -0.12304783 541.28739834 C-0.1247786 539.89275928 -0.1247786 539.89275928 -0.12654433 538.4699457 C-0.12921904 535.31315258 -0.12468185 532.15640913 -0.12025452 528.99961853 C-0.12069004 526.73011515 -0.12156461 524.46061182 -0.12284368 522.19110876 C-0.12509227 515.92249616 -0.12106242 509.65390047 -0.11606562 503.38529003 C-0.11220735 497.32942802 -0.1130248 491.27356791 -0.11374746 485.21770517 C-0.1150635 472.82397195 -0.11171186 460.43024405 -0.10573006 448.03651237 C-0.09981966 435.75934765 -0.09596545 423.48218514 -0.09487724 411.205019 C-0.0948085 410.44259701 -0.09473976 409.68017502 -0.09466894 408.89464933 C-0.09433062 405.02293359 -0.09402923 401.15121785 -0.09374207 397.2795021 C-0.09163982 369.83273622 -0.08489736 342.38597323 -0.07543945 314.93920898 C-0.06625994 288.26961279 -0.05917392 261.60001738 -0.05493164 234.93041992 C-0.05480011 234.1088207 -0.05466859 233.28722147 -0.05453308 232.4407253 C-0.05321459 224.19013497 -0.05193877 215.93954463 -0.05069422 207.68895429 C-0.04815778 190.88049117 -0.04533653 174.0720281 -0.04234314 157.26356506 C-0.04220585 156.49068345 -0.04206856 155.71780183 -0.04192711 154.92149955 C-0.03272135 103.28099846 -0.01679889 51.64049911 0 0 Z " fill="#CC3300" transform="translate(196,629)"/>
<path d="M0 0 C8.91 0 17.82 0 27 0 C27 181.83 27 363.66 27 551 C18.09 551 9.18 551 0 551 C0 369.17 0 187.34 0 0 Z " fill="#CC3300" transform="translate(1542,629)"/>
<path d="M0 0 C8.91 0 17.82 0 27 0 C27 181.83 27 363.66 27 551 C18.09 551 9.18 551 0 551 C0 369.17 0 187.34 0 0 Z " fill="#CC3300" transform="translate(231,629)"/>
<path d="M0 0 C66.33 0 132.66 0 201 0 C201 21.78 201 43.56 201 66 C134.67 66 68.34 66 0 66 C0 44.22 0 22.44 0 0 Z " fill="#CC6633" transform="translate(1472,562)"/>
<path d="M0 0 C66.33 0 132.66 0 201 0 C201 21.78 201 43.56 201 66 C134.67 66 68.34 66 0 66 C0 44.22 0 22.44 0 0 Z " fill="#CC6633" transform="translate(127,562)"/>
<path d="M0 0 C115.83 0 231.66 0 351 0 C351 8.58 351 17.16 351 26 C235.17 26 119.34 26 0 26 C0 17.42 0 8.84 0 0 Z " fill="#CB9833" transform="translate(1397,1244)"/>
<path d="M0 0 C115.83 0 231.66 0 351 0 C351 8.58 351 17.16 351 26 C235.17 26 119.34 26 0 26 C0 17.42 0 8.84 0 0 Z " fill="#CB9833" transform="translate(52,1244)"/>
<path d="M0 0 C33.33 0 66.66 0 101 0 C101 8.58 101 17.16 101 26 C94.73 26 88.46 26 82 26 C82 36.56 82 47.12 82 58 C96.52 58 111.04 58 126 58 C126 66.58 126 75.16 126 84 C76.17 84 26.34 84 -25 84 C-25 75.42 -25 66.84 -25 58 C-10.15 58 4.7 58 20 58 C20 47.44 20 36.88 20 26 C13.79207086 26.03958027 13.79207086 26.03958027 7.58422852 26.09008789 C6.81522217 26.09258545 6.04621582 26.09508301 5.25390625 26.09765625 C4.06776733 26.10551147 4.06776733 26.10551147 2.85766602 26.11352539 C1 26 1 26 0 25 C0 16.75 0 8.5 0 0 Z M47 26 C47 36.56 47 47.12 47 58 C49.31 58 51.62 58 54 58 C54 47.44 54 36.88 54 26 C51.69 26 49.38 26 47 26 Z " fill="#CC9832" transform="translate(1522,226)"/>
<path d="M0 0 C33.33 0 66.66 0 101 0 C101 8.25 101 16.5 101 25 C100 26 100 26 98.14233398 26.11352539 C96.95619507 26.10567017 96.95619507 26.10567017 95.74609375 26.09765625 C94.9770874 26.09515869 94.20808105 26.09266113 93.41577148 26.09008789 C92.43294189 26.08098389 91.4501123 26.07187988 90.4375 26.0625 C87.323125 26.041875 84.20875 26.02125 81 26 C81 36.56 81 47.12 81 58 C95.85 58 110.7 58 126 58 C126 66.58 126 75.16 126 84 C76.17 84 26.34 84 -25 84 C-25 75.42 -25 66.84 -25 58 C-10.48 58 4.04 58 19 58 C19 47.44 19 36.88 19 26 C12.73 26 6.46 26 0 26 C0 17.42 0 8.84 0 0 Z M47 26 C47 36.56 47 47.12 47 58 C49.31 58 51.62 58 54 58 C54 47.44 54 36.88 54 26 C51.69 26 49.38 26 47 26 Z " fill="#CC9832" transform="translate(177,226)"/>
<path d="M0 0 C0 14.19 0 28.38 0 43 C-13.39075959 48.57948316 -13.39075959 48.57948316 -18.78515625 50.69140625 C-44.34903782 60.76494511 -69.31364147 71.9273849 -94 84 C-94.88768066 84.43022461 -95.77536133 84.86044922 -96.68994141 85.30371094 C-107.41721837 90.50592248 -117.84216096 96.02699725 -128.02441406 102.2421875 C-136.02925386 106.99691845 -136.02925386 106.99691845 -141 106 C-144.15625 104.4609375 -144.15625 104.4609375 -147.5 102.375 C-156.86265793 96.73458784 -166.62031969 92.392573 -177.20703125 89.54296875 C-179 89 -179 89 -180 88 C-180.07244053 85.98035801 -180.08377188 83.95832876 -180.0625 81.9375 C-180.05347656 80.83277344 -180.04445313 79.72804688 -180.03515625 78.58984375 C-180.02355469 77.73519531 -180.01195312 76.88054687 -180 76 C-131.57102261 49.72517011 -81.92204397 27.42716543 -30 9 C-28.14592529 8.33750244 -28.14592529 8.33750244 -26.25439453 7.66162109 C-22.63104335 6.3695551 -19.00407344 5.08839567 -15.375 3.8125 C-13.73785034 3.23169678 -13.73785034 3.23169678 -12.06762695 2.63916016 C-10.56075317 2.11588135 -10.56075317 2.11588135 -9.0234375 1.58203125 C-8.14606934 1.27499268 -7.26870117 0.9679541 -6.36474609 0.65161133 C-4 0 -4 0 0 0 Z " fill="#CB3300" transform="translate(438,304)"/>
<path d="M0 0 C5.60188885 0.60762948 10.55282126 2.02396994 15.859375 3.88671875 C17.13336403 4.32665665 17.13336403 4.32665665 18.43309021 4.77548218 C21.20835848 5.73788133 23.97949158 6.71148866 26.75 7.6875 C27.70484283 8.02224335 28.65968567 8.35698669 29.64346313 8.70187378 C48.32122949 15.26158584 66.74914713 22.33478301 85 30 C85.67424011 30.28296936 86.34848022 30.56593872 87.04315186 30.85748291 C118.70494231 44.17741473 150.26908247 58.75767927 180 76 C180 79.96 180 83.92 180 88 C178.84886719 88.38929688 177.69773437 88.77859375 176.51171875 89.1796875 C157.45283289 95.264267 157.45283289 95.264267 141 106 C135.22768066 106.73801343 131.83074956 104.60263023 127.0625 101.75 C125.44421179 100.81899634 123.82434481 99.89073298 122.203125 98.96484375 C121.35169922 98.47612793 120.50027344 97.98741211 119.62304688 97.48388672 C84.56719986 77.65240513 47.46209605 61.25212778 9.72021484 47.28613281 C8.01792725 46.65529785 8.01792725 46.65529785 6.28125 46.01171875 C5.28158203 45.64522217 4.28191406 45.27872559 3.25195312 44.90112305 C1 44 1 44 0 43 C-0.09268999 41.64905018 -0.11747326 40.29332909 -0.11352539 38.93920898 C-0.11344986 38.07839218 -0.11337433 37.21757538 -0.11329651 36.33067322 C-0.10813522 35.39526199 -0.10297394 34.45985077 -0.09765625 33.49609375 C-0.0962413 32.54307877 -0.09482635 31.59006378 -0.09336853 30.60816956 C-0.08775152 27.55124835 -0.07519616 24.49439923 -0.0625 21.4375 C-0.05748719 19.37044376 -0.05292391 17.30338638 -0.04882812 15.23632812 C-0.03777656 10.15752412 -0.02050055 5.0787743 0 0 Z " fill="#CB3300" transform="translate(1362,304)"/>
<path d="M0 0 C91.08 0 182.16 0 276 0 C276 8.25 276 16.5 276 25 C184.92 25 93.84 25 0 25 C0 16.75 0 8.5 0 0 Z " fill="#CB6533" transform="translate(1435,512)"/>
<path d="M0 0 C91.08 0 182.16 0 276 0 C276 8.25 276 16.5 276 25 C184.92 25 93.84 25 0 25 C0 16.75 0 8.5 0 0 Z " fill="#CB6533" transform="translate(89,512)"/>
<path d="M0 0 C0 14.19 0 28.38 0 43 C-13.39075959 48.57948316 -13.39075959 48.57948316 -18.78515625 50.69140625 C-42.58123198 60.06833491 -65.87553353 70.34178812 -88.89453125 81.50390625 C-90.2395874 82.15383545 -90.2395874 82.15383545 -91.61181641 82.81689453 C-93.58396814 83.79389794 -95.52200917 84.83943201 -97.44921875 85.90234375 C-100 87 -100 87 -102.18359375 86.98828125 C-104.79783787 85.56590757 -105.61597696 83.77348364 -107.0625 81.1875 C-113.15552211 71.13661737 -121.77231909 63.0601972 -130.19921875 54.9609375 C-132 53 -132 53 -132 51 C-99.69948386 35.56376165 -66.70379852 22.05657993 -33 10 C-32.29375488 9.74718262 -31.58750977 9.49436523 -30.85986328 9.23388672 C-26.10052206 7.53311415 -21.33394088 5.85398891 -16.5625 4.1875 C-14.74020874 3.54687622 -14.74020874 3.54687622 -12.88110352 2.89331055 C-11.20939087 2.31770386 -11.20939087 2.31770386 -9.50390625 1.73046875 C-8.53267822 1.39426514 -7.5614502 1.05806152 -6.56079102 0.71166992 C-4 0 -4 0 0 0 Z " fill="#CB3300" transform="translate(438,363)"/>
<path d="M0 0 C7.87767336 1.12538191 7.87767336 1.12538191 11.18652344 2.26831055 C11.93527237 2.52391754 12.6840213 2.77952454 13.45545959 3.0428772 C14.24875168 3.32134491 15.04204376 3.59981262 15.859375 3.88671875 C17.13336403 4.32665665 17.13336403 4.32665665 18.43309021 4.77548218 C21.20835848 5.73788133 23.97949158 6.71148866 26.75 7.6875 C27.70484283 8.02224335 28.65968567 8.35698669 29.64346313 8.70187378 C64.52712242 20.95316529 98.5540766 35.25535225 132 51 C130.62921826 54.10260812 129.08550984 56.11613977 126.62109375 58.43359375 C125.95094238 59.07659424 125.28079102 59.71959473 124.59033203 60.38208008 C123.87989746 61.06036865 123.16946289 61.73865723 122.4375 62.4375 C115.57500871 69.12279081 110.05818351 75.86989529 105 84 C104.34 84.99 103.68 85.98 103 87 C99.44138197 86.41741694 96.64204029 85.48313244 93.45703125 83.8046875 C92.56661133 83.34400879 91.67619141 82.88333008 90.75878906 82.40869141 C89.78651367 81.90257324 88.81423828 81.39645508 87.8125 80.875 C64.31282623 68.9218913 40.04559104 58.78641572 15.42480469 49.39111328 C14.68880035 49.11009262 13.95279602 48.82907196 13.19448853 48.53953552 C11.82183232 48.01671137 10.44833113 47.49609793 9.07382202 46.97816467 C5.94003781 45.78858904 3.00678492 44.50339246 0 43 C0 28.81 0 14.62 0 0 Z " fill="#CB3300" transform="translate(1362,363)"/>
<path d="M0 0 C0 14.19 0 28.38 0 43 C-13.39075959 48.57948316 -13.39075959 48.57948316 -18.78515625 50.69140625 C-40.00177049 59.05342776 -60.91537549 68.00052429 -81.47265625 77.890625 C-84 79 -84 79 -86 79 C-86.12004395 78.38705078 -86.24008789 77.77410156 -86.36376953 77.14257812 C-88.69316005 65.42331143 -91.23203655 54.15810364 -95.765625 43.08203125 C-96.7261489 40.68376113 -97.41582038 38.4969294 -98 36 C-87.15020737 30.74441254 -76.13883745 26.1639553 -64.875 21.875 C-64.04770386 21.55795105 -63.22040771 21.2409021 -62.36804199 20.91424561 C-7.76390988 0 -7.76390988 0 0 0 Z " fill="#CB3300" transform="translate(438,422)"/>
<path d="M0 0 C7.87767336 1.12538191 7.87767336 1.12538191 11.18652344 2.26831055 C12.30950333 2.65166061 12.30950333 2.65166061 13.45516968 3.04275513 C14.64525131 3.46051712 14.64525131 3.46051712 15.859375 3.88671875 C16.70956207 4.18037323 17.55974915 4.47402771 18.43569946 4.77658081 C21.21002546 5.7388084 23.98027473 6.71211433 26.75 7.6875 C27.69852844 8.01958466 28.64705688 8.35166931 29.62432861 8.69381714 C42.98385287 13.3784769 56.23623054 18.28990013 69.375 23.5625 C70.0810437 23.84523773 70.7870874 24.12797546 71.51452637 24.41928101 C80.46927599 28.01866957 89.27572486 31.8699404 98 36 C96.5968354 40.24019842 95.10854181 44.43479321 93.5625 48.625 C90.00628602 58.57193969 87.74105972 68.59460778 86 79 C81.63777492 77.62942631 77.56466662 75.95547817 73.42578125 74.015625 C72.12223452 73.41011554 70.81843011 72.80516061 69.5144043 72.20068359 C68.83050629 71.88282898 68.14660828 71.56497437 67.44198608 71.23748779 C50.55049772 63.40454693 33.39764104 56.37145675 16.05151367 49.61474609 C10.67572778 47.4722063 5.34186065 45.22577527 0 43 C0 28.81 0 14.62 0 0 Z " fill="#CB3300" transform="translate(1362,422)"/>
<path d="M0 0 C49.83 0 99.66 0 151 0 C151 8.58 151 17.16 151 26 C101.17 26 51.34 26 0 26 C0 17.42 0 8.84 0 0 Z " fill="#CB9833" transform="translate(1497,284)"/>
<path d="M0 0 C49.83 0 99.66 0 151 0 C151 8.58 151 17.16 151 26 C101.17 26 51.34 26 0 26 C0 17.42 0 8.84 0 0 Z " fill="#CB9833" transform="translate(152,284)"/>
<path d="M0 0 C1.12591553 0.00523682 2.25183105 0.01047363 3.41186523 0.01586914 C4.62680664 0.0190918 5.84174805 0.02231445 7.09350586 0.02563477 C8.37290039 0.03401367 9.65229492 0.04239258 10.97045898 0.05102539 C12.2537207 0.05553711 13.53698242 0.06004883 14.85913086 0.06469727 C18.04211921 0.07652994 21.22501661 0.09301471 24.40795898 0.11352539 C24.43261187 4.79491793 24.45079638 9.47627298 24.46289062 14.15771484 C24.46793056 15.75147154 24.47476248 17.34522358 24.48339844 18.93896484 C24.49547897 21.22502792 24.50119054 23.51103006 24.50561523 25.79711914 C24.51077652 26.51379257 24.51593781 27.230466 24.52125549 27.96885681 C24.52145161 29.68416211 24.46987906 31.39933805 24.40795898 33.11352539 C22.63346305 34.88802133 20.05778638 34.24382611 17.65795898 34.24633789 C16.49264648 34.24762695 15.32733398 34.24891602 14.12670898 34.25024414 C12.89952148 34.24637695 11.67233398 34.24250977 10.40795898 34.23852539 C8.56717773 34.24432617 8.56717773 34.24432617 6.68920898 34.25024414 C5.52389648 34.24895508 4.35858398 34.24766602 3.15795898 34.24633789 C2.08030273 34.24520996 1.00264648 34.24408203 -0.10766602 34.24291992 C-2.59204102 34.11352539 -2.59204102 34.11352539 -3.59204102 33.11352539 C-3.69282222 30.74954071 -3.73177317 28.41541228 -3.72485352 26.05102539 C-3.72581024 25.34453857 -3.72676697 24.63805176 -3.72775269 23.91015625 C-3.72843434 22.41381746 -3.72658106 20.91747572 -3.72241211 19.42114258 C-3.71706359 17.12322382 -3.72235752 14.82550053 -3.72875977 12.52758789 C-3.72809898 11.07706662 -3.72681781 9.62654548 -3.72485352 8.17602539 C-3.72687775 7.48436279 -3.72890198 6.7927002 -3.73098755 6.08007812 C-3.70171946 0.16212674 -3.70171946 0.16212674 0 0 Z " fill="#CC3300" transform="translate(1579.592041015625,250.886474609375)"/>
<path d="M0 0 C4.47915328 -0.02886338 8.95828291 -0.04675187 13.4375 -0.0625 C14.71689453 -0.07087891 15.99628906 -0.07925781 17.31445312 -0.08789062 C19.13686523 -0.09272461 19.13686523 -0.09272461 20.99609375 -0.09765625 C22.12200928 -0.10289307 23.2479248 -0.10812988 24.40795898 -0.11352539 C27 0 27 0 28 1 C28.1007812 3.36398468 28.13973215 5.69811311 28.1328125 8.0625 C28.13424759 9.12223022 28.13424759 9.12223022 28.13571167 10.20336914 C28.13639333 11.69970793 28.13454005 13.19604967 28.13037109 14.69238281 C28.12502257 16.99030157 28.13031651 19.28802486 28.13671875 21.5859375 C28.13605797 23.03645877 28.1347768 24.48697991 28.1328125 25.9375 C28.13483673 26.6291626 28.13686096 27.3208252 28.13894653 28.03344727 C28.11495224 32.88504776 28.11495224 32.88504776 27 34 C25.08541718 34.09971786 23.16717683 34.13080589 21.25 34.1328125 C20.0846875 34.13410156 18.919375 34.13539063 17.71875 34.13671875 C16.4915625 34.13285156 15.264375 34.12898438 14 34.125 C12.15921875 34.13080078 12.15921875 34.13080078 10.28125 34.13671875 C9.1159375 34.13542969 7.950625 34.13414062 6.75 34.1328125 C5.67234375 34.13168457 4.5946875 34.13055664 3.484375 34.12939453 C1 34 1 34 0 33 C-0.08843793 30.55169574 -0.11528752 28.13179401 -0.09765625 25.68359375 C-0.0962413 24.95253922 -0.09482635 24.22148468 -0.09336853 23.46827698 C-0.08775408 21.12464368 -0.07519922 18.78110461 -0.0625 16.4375 C-0.05748686 14.85221492 -0.05292363 13.26692834 -0.04882812 11.68164062 C-0.03777997 7.7877239 -0.02050572 3.89387795 0 0 Z " fill="#CC3300" transform="translate(196,251)"/>
<path d="M0 0 C8.91 0 17.82 0 27 0 C27 11.22 27 22.44 27 34 C18.09 34 9.18 34 0 34 C0 22.78 0 11.56 0 0 Z " fill="#CC3300" transform="translate(1542,251)"/>
<path d="M0 0 C8.91 0 17.82 0 27 0 C27 11.22 27 22.44 27 34 C18.09 34 9.18 34 0 34 C0 22.78 0 11.56 0 0 Z " fill="#CC3300" transform="translate(231,251)"/>
</svg>
